<svg width="406" height="306" viewBox="0 0 406 306" fill="none" xmlns="http://www.w3.org/2000/svg">
<path d="M197.194 292.055L14.7784 184.221C8.97262 180.963 3.98897 175.604 9.65267 172.102L192.728 66.5421C195.479 64.8369 199.651 63.7204 202.442 65.3444L393.932 176.527C399.737 179.897 400.783 189.316 394.947 192.696L221.27 291.862C217.621 293.987 213.48 295.122 209.258 295.156C205.035 295.19 200.877 294.121 197.194 292.055V292.055Z" fill="#651FFF"/>
<path opacity="0.32" d="M175.189 231.206C171.332 232.383 167.475 233.55 163.516 234.342C161.1 234.773 158.659 235.054 156.208 235.185L152.148 232.403L125.048 212.743L149.063 200.025L196.89 221.969C190.485 226.618 182.639 228.922 175.189 231.206Z" fill="url(#paint0_linear)"/>
<path d="M92.5173 85.1878V182.76L211.059 112.958V14.1479L92.5173 85.1878Z" fill="#B388FF"/>
<path opacity="0.32" d="M296.38 226.598C292.523 227.775 288.666 228.942 284.708 229.734C282.291 230.165 279.85 230.446 277.399 230.577L273.339 227.796L246.239 208.135L270.254 195.417L318.081 217.361C311.707 222.02 303.85 224.314 296.38 226.598Z" fill="url(#paint1_linear)"/>
<path d="M269.056 184.191C270.445 183.132 272.042 182.381 273.743 181.985C275.444 181.59 277.209 181.56 278.922 181.897C282.799 182.75 286.159 185.186 290.087 185.784C290.716 185.876 293.203 185.713 293.589 186.079C304.581 196.483 273.857 195.366 273.857 195.366C270.873 192.92 268.072 190.524 265.108 188.048C266.011 186.058 267.524 185.267 269.056 184.191Z" fill="#F8997C"/>
<path d="M283.52 199.274L284.616 230.658C284.616 231.845 282.809 231.845 282.769 230.658L281.673 199.274C281.622 198.086 283.479 198.086 283.52 199.274Z" fill="#844040"/>
<path d="M260.479 216.072C266.076 210.598 271.421 204.883 276.516 198.929C277.288 198.025 278.546 199.335 277.826 200.238C272.737 206.186 267.392 211.9 261.789 217.381C260.936 218.214 259.627 216.945 260.479 216.072Z" fill="#844040"/>
<path d="M289.935 196.371C294.279 204.572 298.369 212.899 302.206 221.35C302.693 222.426 301.1 223.38 300.613 222.284C296.776 213.832 292.685 205.506 288.341 197.305C287.773 196.249 289.377 195.315 289.935 196.371Z" fill="#844040"/>
<path d="M265.636 187.124C267.487 189.657 270.091 191.54 273.076 192.504C277.278 193.763 283.388 193.174 285.591 188.84C289.651 180.974 285.834 171.118 290.077 163.465C290.572 162.493 291.266 161.637 292.114 160.951C292.963 160.266 293.946 159.766 295 159.486C297.75 158.897 299.638 160.927 300.633 163.323C302.419 167.616 302.358 172.965 302.267 177.533C302.264 181.229 301.992 184.919 301.455 188.576C301.455 188.576 298.887 203.923 278.851 199.802C275.386 199.182 272.055 197.966 269.005 196.209C267.434 195.33 266.053 194.147 264.945 192.727C263.768 190.981 264.58 188.891 265.636 187.124Z" fill="#68E1FD"/>
<path d="M283.337 143.469L283.885 147.001H289.539L290.422 143.012" fill="#F7931E"/>
<path d="M251.72 201.852C251.72 201.852 251.882 204.653 251.02 205.435C250.157 206.217 245.478 204.044 244.239 204.816C243.001 205.587 248.929 211.2 251.02 211.505C253.111 211.809 255.08 208.835 255.08 208.835V213.058L257.445 214.408L259.19 213.393L258.673 201.872L251.72 201.852Z" fill="#FF9F9F"/>
<path d="M259.779 203.913C257.292 206.054 254.613 205.943 251.517 204.664C249.294 200.756 246.675 176.944 252.238 173.138C258.206 169.078 267.534 169.778 269.097 170.225L291.955 173.97C293.711 176.954 289.062 192.585 278.912 193.022C268.762 193.458 262.276 189.642 262.276 189.642L259.779 203.913Z" fill="#124577"/>
<path d="M268.66 138.587C269.747 139.067 270.646 139.891 271.218 140.932V141.013C272.832 142.332 273.076 144.728 274.781 145.915C274.781 145.915 276.385 147.093 276.405 147.133C276.425 147.174 276.253 144.931 276.253 144.951C276.811 146.474 277.349 147.996 277.826 149.539C277.75 149.587 277.668 149.625 277.582 149.651L277.765 149.742L277.917 149.833C277.938 149.91 277.976 149.982 278.029 150.042C278.082 150.101 278.148 150.148 278.222 150.178C278.285 150.404 278.283 150.642 278.214 150.866C278.146 151.09 278.014 151.289 277.835 151.44C277.656 151.591 277.438 151.687 277.206 151.717C276.974 151.747 276.738 151.71 276.527 151.61L271.36 149.082C270.67 148.936 269.992 148.739 269.33 148.493C269.33 147.956 269.249 147.418 269.198 146.88C268.791 146.25 268.547 145.529 268.486 144.781C268.426 144.034 268.552 143.283 268.853 142.596L268.762 142.505V142.444C268.335 142.145 267.971 141.764 267.692 141.323C267.413 140.882 267.225 140.39 267.138 139.876C267.097 139.135 267.838 138.201 268.66 138.587Z" fill="#F7931E"/>
<path d="M275.238 143.469C275.238 143.469 269.34 147.123 268.731 150.178C268.731 150.178 272.873 159.171 272.588 159.527C267.909 165.617 281.937 155.67 281.937 155.67C281.937 155.67 279.125 147.133 275.238 143.469Z" fill="#68E1FD"/>
<path d="M275.238 143.469C275.238 143.469 269.34 147.123 268.731 150.178C268.731 150.178 272.873 159.171 272.588 159.527C267.909 165.617 281.937 155.67 281.937 155.67C281.937 155.67 279.125 147.133 275.238 143.469Z" fill="#FF9F9F"/>
<path d="M293.447 149.417C291.193 143.794 286.92 145.621 286.068 145.621C277.674 145.621 274.151 150.625 271.918 153.913C271.921 153.944 271.921 153.974 271.918 154.005C270.824 157.811 270.177 161.731 269.99 165.687C269.848 167.575 269.817 169.504 269.554 171.382C269.34 172.843 268.65 174.64 269.554 176.02C270.01 176.741 271.198 176.934 271.939 177.228C273.445 177.822 275.005 178.267 276.598 178.558C279.116 179.025 281.702 178.997 284.21 178.476C286.839 177.908 290.594 176.548 291.965 173.98C293.447 171.158 295.7 155.03 293.447 149.417Z" fill="#FF9F9F"/>
<path d="M278.76 132.923C278.76 133.066 277.887 141.886 279.856 143.825C281.825 145.763 287.072 144.961 288.372 142.81C289.671 140.658 291.264 137.887 289.874 134.598C288.483 131.31 278.993 130.751 278.76 132.923Z" fill="#F7931E"/>
<path d="M284.312 136.11C285.824 138.079 283.895 140.779 284.312 142.921C285.174 147.823 291.295 145.59 293.365 143.144C294.087 142.279 294.71 141.336 295.223 140.333C295.862 139.118 296.056 137.717 295.771 136.374C295.612 135.605 295.388 134.852 295.101 134.121C293.142 129.34 287.275 127.168 282.495 128.467C281.275 128.698 280.189 129.385 279.457 130.388C278.725 131.391 278.403 132.635 278.557 133.867C280.282 134.537 283.063 134.486 284.312 136.11Z" fill="#124577"/>
<path d="M283.023 139.724C282.958 139.569 282.939 139.399 282.968 139.233C282.997 139.068 283.072 138.914 283.185 138.79C283.79 138.041 284.631 137.518 285.57 137.308C285.996 137.207 286.445 137.266 286.83 137.474C287.216 137.681 287.511 138.023 287.661 138.435C288.27 140.465 285.022 141.023 283.693 141.195C283.458 141.195 283.234 141.102 283.068 140.937C282.902 140.771 282.809 140.547 282.809 140.312C282.803 140.205 282.819 140.097 282.855 139.996C282.892 139.895 282.949 139.802 283.023 139.724V139.724Z" fill="#F7931E"/>
<path d="M296.512 135.542C298.721 135.542 300.511 133.752 300.511 131.543C300.511 129.334 298.721 127.544 296.512 127.544C294.303 127.544 292.513 129.334 292.513 131.543C292.513 133.752 294.303 135.542 296.512 135.542Z" fill="#124577"/>
<path d="M278.678 161.506C278.678 161.506 277.227 176.883 275.948 177.746C274.669 178.609 268.731 176.68 268.731 176.68C268.731 176.68 275.796 172.407 278.678 161.506Z" fill="#DD6C6C"/>
<path d="M259.667 169.869C259.667 169.869 256.957 168.956 255.739 169.869C254.521 170.783 252.238 173.036 252.694 173.929C253.151 174.823 254.978 173.929 254.978 173.929C255.599 173.815 256.235 173.815 256.856 173.929C257.262 174.153 260.439 175.614 261.423 174.944C262.408 174.274 262.053 170.742 259.667 169.869Z" fill="#F7931E"/>
<path d="M271.005 157.781C271.005 157.781 268.813 164.388 266.752 165.373C264.698 166.069 262.585 166.575 260.439 166.885C259.557 169.601 259.213 172.462 259.424 175.31C264.742 176.629 271.167 176.974 273.421 175.097C276.689 172.387 278.973 159.993 278.973 159.993L271.005 157.781Z" fill="#FF9F9F"/>
<path d="M264.742 188.921C264.822 188.723 264.951 188.548 265.116 188.414C265.282 188.279 265.479 188.189 265.689 188.151C265.899 188.114 266.115 188.13 266.317 188.199C266.519 188.268 266.7 188.387 266.844 188.545C268.533 190.39 270.679 191.755 273.065 192.504C277.268 193.763 283.378 193.174 285.58 188.84C289.579 180.994 285.854 171.189 290.016 163.546C290.732 162.17 291.813 161.018 293.142 160.217C296.898 158.045 299.405 160.42 300.613 163.313C302.399 167.606 302.338 172.955 302.247 177.523C302.243 181.218 301.972 184.909 301.435 188.566C301.435 188.566 298.867 203.913 278.831 199.792C275.366 199.172 272.035 197.956 268.985 196.199C267.413 195.32 266.033 194.137 264.925 192.717C264.577 192.151 264.378 191.506 264.346 190.843C264.314 190.179 264.45 189.518 264.742 188.921Z" fill="#E0F2F1"/>
<path opacity="0.32" d="M244.047 257.027C240.19 258.205 236.333 259.372 232.374 260.164C229.958 260.594 227.517 260.876 225.066 261.006L221.006 258.225L193.865 238.565L217.88 225.847L265.707 247.791C259.353 252.47 251.497 254.754 244.047 257.027Z" fill="url(#paint2_linear)"/>
<path d="M216.692 214.631C218.081 213.572 219.678 212.821 221.379 212.425C223.08 212.03 224.845 212 226.558 212.337C230.435 213.19 233.795 215.625 237.723 216.224C238.352 216.316 240.839 216.153 241.225 216.519C252.217 226.922 221.493 225.806 221.493 225.806C218.509 223.36 215.708 220.964 212.744 218.488C213.658 216.488 215.18 215.697 216.692 214.631Z" fill="#F8997C"/>
<path d="M231.156 229.704L232.252 261.087C232.252 262.275 230.446 262.275 230.405 261.087L229.309 229.704C229.268 228.516 231.116 228.516 231.156 229.704Z" fill="#844040"/>
<path d="M208.075 246.502C213.671 241.028 219.017 235.313 224.112 229.358C224.883 228.455 226.142 229.764 225.421 230.668C220.333 236.616 214.987 242.33 209.384 247.811C208.572 248.643 207.263 247.334 208.075 246.502Z" fill="#844040"/>
<path d="M237.571 226.801C241.915 235.002 246.006 243.328 249.842 251.78C250.329 252.856 248.736 253.81 248.249 252.714C244.412 244.262 240.322 235.936 235.977 227.734C235.419 226.689 237.013 225.745 237.571 226.801Z" fill="#844040"/>
<path d="M213.272 217.554C215.123 220.087 217.727 221.97 220.712 222.934C224.914 224.192 231.024 223.604 233.227 219.27C237.287 211.403 233.47 201.548 237.713 193.895C238.208 192.923 238.902 192.066 239.751 191.381C240.599 190.695 241.582 190.196 242.636 189.916C245.386 189.327 247.274 191.357 248.269 193.752C250.055 198.046 249.995 203.395 249.903 207.962C249.9 211.658 249.628 215.349 249.091 219.006C249.091 219.006 246.523 234.352 226.487 230.232C223.022 229.612 219.691 228.396 216.642 226.638C215.07 225.76 213.689 224.576 212.582 223.157C211.404 221.411 212.216 219.33 213.272 217.554Z" fill="#68E1FD"/>
<path d="M199.407 232.282C199.407 232.282 199.569 235.083 198.707 235.865C197.844 236.646 193.165 234.474 191.926 235.246C190.688 236.017 196.616 241.63 198.707 241.934C200.797 242.239 202.767 239.265 202.767 239.265V243.487L205.131 244.837L206.877 243.822L206.36 232.302L199.407 232.282Z" fill="#8787D1"/>
<path d="M207.415 234.342C204.929 236.484 202.249 236.372 199.153 235.093C196.93 231.186 194.312 207.374 199.874 203.567C205.842 199.507 215.17 200.208 216.733 200.654L239.591 204.4C241.347 207.384 236.698 223.015 226.548 223.451C216.398 223.888 209.912 220.071 209.912 220.071L207.415 234.342Z" fill="#124577"/>
<path d="M216.307 169.017C217.393 169.497 218.292 170.321 218.864 171.361V171.442C220.478 172.762 220.722 175.157 222.427 176.345C222.427 176.345 224.031 177.522 224.051 177.563C224.071 177.603 223.899 175.36 223.899 175.381C224.457 176.903 224.995 178.426 225.472 179.968C225.397 180.017 225.315 180.055 225.228 180.08L225.411 180.171L225.563 180.263C225.584 180.34 225.622 180.411 225.675 180.471C225.728 180.531 225.794 180.578 225.868 180.608C225.932 180.833 225.929 181.072 225.86 181.296C225.792 181.519 225.66 181.719 225.482 181.87C225.303 182.021 225.084 182.117 224.852 182.147C224.62 182.177 224.384 182.14 224.173 182.039L219.007 179.512C218.316 179.365 217.638 179.169 216.977 178.923C216.977 178.385 216.895 177.847 216.845 177.309C216.438 176.679 216.193 175.958 216.133 175.211C216.073 174.463 216.199 173.713 216.5 173.026L216.408 172.934V172.874C215.981 172.574 215.617 172.193 215.339 171.753C215.06 171.312 214.871 170.82 214.784 170.306C214.744 169.575 215.485 168.631 216.307 169.017Z" fill="#F7931E"/>
<path d="M222.874 173.899C222.874 173.899 216.977 177.553 216.368 180.608C216.368 180.608 220.509 189.601 220.225 189.956C215.545 196.046 229.573 186.099 229.573 186.099C229.573 186.099 226.741 177.563 222.874 173.899Z" fill="#68E1FD"/>
<path d="M209.466 176.142C208.978 180.202 214.175 185.886 216.357 186.972C219.402 188.474 220.529 176 233.714 176.051C234.566 176.051 238.84 174.234 241.093 179.847C243.346 185.46 241.093 201.588 239.591 204.389C238.271 206.866 229.441 212.824 216.916 206.419L216.733 200.614C216.733 200.614 209.323 200.451 205.395 195.001C201.741 189.926 199.559 182.283 199.904 178.537C202.878 177.289 206.552 175.178 209.466 176.142Z" fill="#68E1FD"/>
<path d="M222.874 173.899C222.874 173.899 216.977 177.553 216.368 180.608C216.368 180.608 220.509 189.601 220.225 189.956C215.545 196.046 229.573 186.099 229.573 186.099C229.573 186.099 226.741 177.563 222.874 173.899Z" fill="#8787D1"/>
<path d="M200.097 175.249C200.138 175.291 200.186 175.326 200.239 175.35C200.199 176.582 200.165 177.817 200.138 179.055C200.138 179.674 201.092 179.593 201.102 178.974V178.812C201.235 178.843 201.375 178.823 201.494 178.755C201.613 178.688 201.701 178.577 201.741 178.446V178.324C201.817 178.359 201.901 178.371 201.984 178.36C202.066 178.35 202.144 178.316 202.208 178.263C202.344 178.246 202.468 178.177 202.553 178.071C202.603 178.134 202.666 178.186 202.738 178.223C202.81 178.26 202.889 178.28 202.97 178.284V178.72C202.97 179.258 203.863 179.319 203.924 178.771V178.385C204.066 178.791 204.817 178.791 204.857 178.304V177.766C204.916 177.75 204.972 177.722 205.02 177.685V177.776C205.036 177.888 205.09 177.99 205.174 178.066C205.257 178.142 205.364 178.187 205.476 178.193C205.589 178.199 205.7 178.165 205.79 178.099C205.881 178.032 205.946 177.936 205.974 177.827L206.035 177.583C206.089 177.613 206.149 177.631 206.21 177.637C206.272 177.642 206.334 177.636 206.393 177.617C206.452 177.598 206.506 177.567 206.553 177.526C206.599 177.486 206.637 177.436 206.664 177.38C207.316 176.101 207.833 174.757 208.207 173.371C208.371 172.887 208.377 172.364 208.223 171.877C208.07 171.39 207.766 170.964 207.354 170.661C207.313 170.621 207.263 170.589 207.209 170.569C207.155 170.548 207.098 170.538 207.04 170.539V170.539C207.101 169.88 207.172 169.21 207.253 168.509C207.35 168.044 207.418 167.573 207.456 167.098C207.552 166.763 207.531 166.405 207.395 166.083C207.283 165.606 207.019 165.19 206.461 165.292C205.598 165.454 205.253 166.733 205.04 167.433C204.815 168.13 204.629 168.838 204.482 169.555C204.373 169.436 204.242 169.339 204.096 169.271C203.846 169.184 203.577 169.175 203.321 169.243C203.066 169.312 202.838 169.456 202.665 169.656L202.594 169.748C202.489 169.63 202.366 169.531 202.229 169.453C202.013 169.319 201.762 169.253 201.509 169.264C201.255 169.275 201.011 169.362 200.808 169.514C200.553 169.712 200.374 169.992 200.3 170.306C200.132 170.24 199.952 170.211 199.772 170.222C199.592 170.232 199.416 170.282 199.257 170.367C199.098 170.452 198.959 170.57 198.85 170.714C198.741 170.857 198.664 171.023 198.625 171.199C198.311 172.579 199.173 174.234 200.097 175.249ZM204.056 170.326H203.771C203.756 170.283 203.736 170.242 203.71 170.204C203.752 170.185 203.797 170.175 203.842 170.175C203.888 170.175 203.933 170.185 203.974 170.204L204.056 170.326Z" fill="#F7931E"/>
<path d="M226.741 161.201C226.741 161.333 225.929 169.585 227.756 171.351C229.583 173.117 234.506 172.417 235.724 170.438C236.942 168.459 238.434 165.84 237.134 162.764C235.835 159.689 226.954 159.171 226.741 161.201Z" fill="#F7931E"/>
<path d="M229.39 166.561C229.328 166.417 229.308 166.258 229.334 166.103C229.359 165.949 229.428 165.804 229.532 165.688C230.097 164.991 230.88 164.504 231.755 164.307C232.148 164.211 232.562 164.261 232.921 164.448C233.279 164.634 233.558 164.945 233.704 165.322C234.272 167.19 231.237 167.738 229.989 167.9C229.772 167.898 229.564 167.81 229.41 167.657C229.257 167.503 229.169 167.295 229.167 167.078C229.17 166.883 229.25 166.697 229.39 166.561V166.561Z" fill="#FFE8E6"/>
<path d="M209.466 176.142C208.978 180.202 214.175 185.886 216.357 186.972C219.402 188.474 220.529 176 233.714 176.051C234.566 176.051 238.84 174.234 241.093 179.847C243.346 185.46 241.093 201.588 239.591 204.389C238.271 206.866 229.441 212.824 216.916 206.419L216.733 200.614C216.733 200.614 209.323 200.451 205.395 195.001C201.741 189.926 199.559 182.283 199.904 178.537C202.878 177.289 206.552 175.178 209.466 176.142Z" fill="#C5CAE9"/>
<path d="M210.501 199.223C213.923 200.451 217.659 200.496 221.109 199.35C224.56 198.203 227.526 195.932 229.532 192.899C229.796 192.493 230.446 192.899 230.182 193.275C228.09 196.447 224.996 198.827 221.394 200.034C217.791 201.241 213.888 201.205 210.308 199.933C209.851 199.791 210.044 199.06 210.501 199.223Z" fill="white"/>
<path d="M217.91 185.581C218.582 184.013 219.578 182.605 220.834 181.45C222.265 180.141 224.051 179.309 225.543 178.081C225.848 177.837 226.274 178.263 225.969 178.507C224.548 179.664 222.924 180.466 221.493 181.663C220.172 182.823 219.131 184.266 218.448 185.886C218.276 186.241 217.748 185.937 217.91 185.581Z" fill="white"/>
<path d="M226.548 162.358L229.177 163.739C229.177 163.739 227.147 171.463 226.538 173.493C225.929 175.523 228.365 178.375 236.292 178.568C244.219 178.761 243.813 166.784 241.986 162.328C240.159 157.872 234.668 155.822 230.202 157.04C229.018 157.271 227.972 157.958 227.289 158.953C226.605 159.947 226.339 161.17 226.548 162.358V162.358Z" fill="#FFAE2C"/>
<path d="M212.389 219.36C212.468 219.162 212.597 218.988 212.762 218.853C212.928 218.718 213.125 218.628 213.335 218.591C213.545 218.553 213.761 218.57 213.963 218.638C214.165 218.707 214.347 218.827 214.49 218.985C216.179 220.829 218.326 222.194 220.712 222.943C224.914 224.202 231.024 223.613 233.227 219.279C237.226 211.433 233.501 201.628 237.662 193.985C238.378 192.609 239.46 191.457 240.788 190.656C244.544 188.484 247.051 190.859 248.259 193.752C250.045 198.045 249.984 203.395 249.893 207.962C249.889 211.658 249.618 215.349 249.081 219.005C249.081 219.005 246.513 234.352 226.477 230.231C223.012 229.611 219.681 228.396 216.631 226.638C215.06 225.76 213.679 224.576 212.571 223.157C212.223 222.591 212.024 221.946 211.992 221.282C211.96 220.618 212.096 219.957 212.389 219.36V219.36Z" fill="#E0F2F1"/>
<path d="M150.941 71.3029L177.869 55.5602C178.1 55.3932 178.261 55.1456 178.32 54.8661C178.379 54.5865 178.331 54.2951 178.187 54.0488C178.042 53.8025 177.811 53.6191 177.538 53.5344C177.265 53.4498 176.97 53.47 176.712 53.5911L149.784 69.3338C149.552 69.5008 149.391 69.7484 149.332 70.0279C149.273 70.3075 149.321 70.5989 149.465 70.8452C149.61 71.0915 149.842 71.275 150.114 71.3596C150.387 71.4442 150.682 71.424 150.941 71.3029V71.3029Z" fill="#FFBE30"/>
<path d="M150.88 76.9361L177.808 61.2341C177.937 61.1554 178.05 61.0521 178.139 60.93C178.228 60.8078 178.293 60.6693 178.328 60.5223C178.364 60.3752 178.371 60.2226 178.348 60.073C178.324 59.9235 178.272 59.78 178.193 59.6507C178.115 59.5214 178.011 59.4089 177.889 59.3195C177.767 59.2301 177.629 59.1657 177.482 59.1299C177.335 59.0941 177.182 59.0876 177.032 59.1108C176.883 59.1339 176.739 59.1863 176.61 59.265L149.723 74.967C149.491 75.1341 149.33 75.3816 149.271 75.6612C149.212 75.9407 149.26 76.2322 149.405 76.4785C149.549 76.7248 149.781 76.9082 150.054 76.9929C150.326 77.0775 150.621 77.0573 150.88 76.9361V76.9361Z" fill="#053855"/>
<path d="M150.88 82.569L177.808 66.8669C177.937 66.7883 178.05 66.6849 178.139 66.5628C178.228 66.4407 178.293 66.3021 178.328 66.1551C178.364 66.008 178.371 65.8554 178.348 65.7059C178.324 65.5563 178.272 65.4128 178.193 65.2835C178.115 65.1542 178.011 65.0417 177.889 64.9523C177.767 64.863 177.629 64.7985 177.482 64.7627C177.335 64.7269 177.182 64.7204 177.032 64.7436C176.883 64.7668 176.739 64.8192 176.61 64.8978L149.723 80.5897C149.491 80.7568 149.33 81.0043 149.271 81.2839C149.212 81.5634 149.26 81.8549 149.405 82.1012C149.549 82.3475 149.781 82.5309 150.054 82.6155C150.326 82.7002 150.621 82.6799 150.88 82.5588V82.569Z" fill="#FF9F9F"/>
<path d="M150.88 88.2023L177.808 72.5002C178.069 72.3414 178.256 72.0853 178.328 71.7884C178.401 71.4914 178.352 71.1779 178.193 70.9168C178.035 70.6557 177.779 70.4684 177.482 70.396C177.185 70.3237 176.871 70.3723 176.61 70.5311L149.723 86.223C149.491 86.3901 149.33 86.6376 149.271 86.9172C149.212 87.1967 149.26 87.4882 149.405 87.7345C149.549 87.9808 149.781 88.1642 150.054 88.2488C150.326 88.3335 150.621 88.3132 150.88 88.1921V88.2023Z" fill="white"/>
<path d="M200.695 58.5256C203.102 51.6293 201.569 44.8229 197.271 43.3229C192.974 41.823 187.539 46.1975 185.132 53.0938C182.725 59.99 184.258 66.7965 188.555 68.2965C192.853 69.7964 198.288 65.4218 200.695 58.5256Z" fill="white"/>
<path d="M192.921 55.8237V41.4208C192.921 41.4208 200.544 38.8427 202.797 49.6931L192.921 55.8237Z" fill="#053855"/>
<path d="M192.921 55.824L200.026 62.4722C200.026 62.4722 203.315 59.9043 202.827 49.6934L192.921 55.824Z" fill="#FF9F9F"/>
<path d="M199.63 73.9722V108.482C199.63 108.886 199.791 109.273 200.076 109.559C200.362 109.844 200.749 110.005 201.153 110.005C201.556 110.005 201.944 109.844 202.229 109.559C202.515 109.273 202.675 108.886 202.675 108.482V73.9722C202.675 73.5684 202.515 73.1812 202.229 72.8956C201.944 72.6101 201.556 72.4497 201.153 72.4497C200.749 72.4497 200.362 72.6101 200.076 72.8956C199.791 73.1812 199.63 73.5684 199.63 73.9722Z" fill="#FFEED9"/>
<path d="M193.489 84.9239V112.177C193.489 112.58 193.65 112.968 193.935 113.253C194.221 113.539 194.608 113.699 195.012 113.699C195.416 113.699 195.803 113.539 196.089 113.253C196.374 112.968 196.534 112.58 196.534 112.177V84.9239C196.534 84.5201 196.374 84.1328 196.089 83.8473C195.803 83.5618 195.416 83.4014 195.012 83.4014C194.608 83.4014 194.221 83.5618 193.935 83.8473C193.65 84.1328 193.489 84.5201 193.489 84.9239V84.9239Z" fill="#FFEED9"/>
<path d="M186.699 98.7583V116.013C186.699 116.417 186.859 116.804 187.145 117.09C187.431 117.375 187.818 117.536 188.222 117.536C188.625 117.536 189.013 117.375 189.298 117.09C189.584 116.804 189.744 116.417 189.744 116.013V98.7583C189.744 98.3545 189.584 97.9673 189.298 97.6818C189.013 97.3962 188.625 97.2358 188.222 97.2358C187.818 97.2358 187.431 97.3962 187.145 97.6818C186.859 97.9673 186.699 98.3545 186.699 98.7583Z" fill="#FFEED9"/>
<path d="M101.835 161.546C101.236 159.283 101.835 115.516 116.532 112.187C131.229 108.858 128.905 151.274 136.01 136.049C143.115 120.824 131.534 105.884 144.922 104.818C158.31 103.752 153.427 135.268 160.969 127.148C168.51 119.028 165.029 99.5094 173.849 99.5195C182.67 99.5297 180.518 118.399 180.518 118.399" stroke="#FFEED9" stroke-width="1.015" stroke-miterlimit="10"/>
<path d="M169.83 100.514C171.259 98.5261 172.564 96.4516 173.738 94.3025C174.225 92.9729 171.708 91.2575 169.383 91.1154C167.059 90.9733 166.805 93.6123 166.805 93.6123C166.509 93.5271 166.193 93.5497 165.912 93.6761C165.631 93.8026 165.405 94.0245 165.272 94.3025C164.704 95.3175 166.125 98.4234 166.287 98.5148L163.577 101.834L168.094 104.047L169.83 100.514Z" fill="#EF986C"/>
<path d="M139.684 206.105C139.684 204.176 139.593 202.238 139.573 200.309L148.068 201.974C148.068 201.974 147.642 205.262 148.576 206.44C149.51 207.617 156.584 211.078 157.427 212.174C158.269 213.271 158.523 215.331 153.549 215.138C148.576 214.945 144.607 211.494 143.511 211.241C142.415 210.987 140.161 210.682 139.451 210.175C139.502 208.825 139.684 207.455 139.684 206.105Z" fill="#2A343D"/>
<path d="M125.231 208.551C125.231 206.623 125.139 204.684 125.119 202.755L133.615 204.42C133.615 204.42 133.188 207.709 134.122 208.886C135.056 210.063 142.13 213.525 142.973 214.621C143.815 215.717 144.069 217.777 139.096 217.585C134.122 217.392 130.153 213.941 129.057 213.687C127.961 213.433 125.708 213.129 124.997 212.621C125.048 211.271 125.241 209.901 125.231 208.551Z" fill="#2A343D"/>
<path d="M129.118 125.676L133.422 126.458C133.385 125.917 133.385 125.375 133.422 124.834C134.325 124.783 135.228 124.702 136.122 124.59C138.639 124.286 140.709 121.759 143.074 120.825C144.089 125.707 144.374 136.364 145.561 144.109C147.074 153.914 151.651 199.416 150.372 203.192C150.372 203.192 150.423 204.552 142.557 204.989C142.557 204.989 140.679 206.064 137.928 202.187L135.147 153.731L136.426 205.719C134.051 207.902 130.478 208.917 123.921 205.638L120.734 139.805L129.118 125.676Z" fill="#35406E"/>
<path d="M135.553 122.55C134.877 122.624 134.2 122.682 133.523 122.722C134.061 113.486 136.934 92.851 143.085 120.774C140.676 121.734 138.138 122.333 135.553 122.55V122.55Z" fill="#35406E"/>
<path d="M124.317 162.856C124.523 161.28 124.195 159.681 123.386 158.314C122.576 156.947 121.332 155.891 119.851 155.314C114.522 153.172 114.634 162.297 114.634 162.297L111.965 161.282C111.965 161.282 110.402 151.64 119.76 152.31C129.118 152.98 127.667 163.82 127.667 163.82L124.317 162.856Z" fill="#CE4823"/>
<path d="M116.989 149.519L117.06 149.184C117.037 149.073 117.037 148.959 117.06 148.849L118.227 140.729C118.237 140.605 118.283 140.488 118.361 140.392C118.439 140.295 118.545 140.225 118.664 140.191C118.693 139.707 118.771 139.227 118.897 138.759C119.195 138.456 119.58 138.253 119.999 138.181C120.418 138.108 120.849 138.168 121.232 138.354C121.627 137.927 122.48 137.856 122.592 138.587C122.703 139.318 122.845 140.333 122.967 141.216L123.038 140.932C123.059 140.838 123.099 140.749 123.154 140.67C123.21 140.592 123.281 140.525 123.363 140.475C123.556 139.825 123.708 139.155 123.871 138.506C124.104 137.491 125.616 137.937 125.383 138.922C125.302 139.253 125.221 139.592 125.139 139.937C125.698 139.775 126.388 140.17 126.154 140.84C125.218 143.192 124.63 145.667 124.409 148.189C124.784 149.721 125.099 151.234 125.352 152.827C125.505 153.792 125.718 155.101 124.49 155.436C124.387 155.47 124.279 155.483 124.171 155.473C124.063 155.464 123.959 155.433 123.864 155.381C123.769 155.33 123.685 155.26 123.618 155.175C123.551 155.09 123.502 154.992 123.475 154.888C123.238 153.839 123.045 152.783 122.896 151.721C122.781 152.114 122.659 152.503 122.531 152.888C122.29 153.714 121.998 154.524 121.658 155.314C121.455 155.751 121.171 156.126 120.643 156.116C120.487 156.125 120.332 156.095 120.19 156.029C120.049 155.964 119.925 155.865 119.831 155.74C119.742 155.965 119.57 156.146 119.351 156.247C119.131 156.347 118.881 156.358 118.653 156.278C117.963 156.075 117.791 155.345 117.801 154.583C115.822 153.731 116.664 151.193 116.989 149.519Z" fill="#EF986C"/>
<path d="M117.243 136.557C117.736 131.307 118.56 126.093 119.709 120.946C120.592 116.836 121.536 109.984 123.059 106.036C124.246 102.991 127.271 101.976 130.712 101.387C134.186 100.775 137.709 100.483 141.237 100.514C141.383 100.522 141.528 100.497 141.664 100.443C141.938 100.443 142.212 100.545 142.486 100.616C143.501 100.88 144.577 103.945 144.871 104.828C145.386 106.538 145.697 108.303 145.795 110.086C146.211 114.816 145.378 119.404 144.891 124.083C144.688 126.113 145.307 129.371 143.592 130.863C142.161 132.111 139.694 132.68 137.878 132.954C134.611 133.383 131.293 133.201 128.093 132.416L126.063 146.078C122.277 147.55 117.283 145.854 117.283 145.854C116.9 142.768 116.886 139.647 117.243 136.557V136.557Z" fill="#CE4823"/>
<path d="M132.427 169.443C132.422 168.6 132.206 167.771 131.801 167.032C131.395 166.293 130.811 165.667 130.103 165.21C124.51 161.638 110.676 152.949 109.803 153.792C108.666 154.807 106.382 174.538 107.255 175.208C107.915 175.705 121.881 182.78 128.732 186.231C129.124 186.429 129.56 186.523 129.998 186.504C130.436 186.486 130.863 186.355 131.236 186.125C131.61 185.895 131.918 185.573 132.132 185.19C132.346 184.807 132.458 184.376 132.458 183.937L132.427 169.443Z" fill="#CE4823"/>
<path d="M141.664 100.433C141.664 100.433 142.78 107.538 136.314 107.538C129.849 107.538 129.514 101.753 129.514 101.753C133.473 100.699 137.57 100.254 141.664 100.433Z" fill="#F2F2F2"/>
<path d="M142.486 100.606C142.486 100.606 151.621 106.696 156.087 107.579C159.761 108.269 164.42 97.5811 164.42 97.5811L170.743 101.164C170.743 101.164 165.861 116.978 158.096 118.277C150.332 119.576 142.486 112.39 142.486 112.39" fill="#CE4823"/>
<path d="M133.046 98.7583C133.107 98.941 133.046 101.032 133.046 101.032L135.969 101.631H139.014L139.573 99.4282" fill="#DB784D"/>
<path d="M132.488 99.6719C132.488 99.6719 134.315 101.499 135.959 101.641C137.35 101.763 139.004 99.9967 139.512 99.4385C139.543 101.166 139.265 102.884 138.69 104.513C138.416 104.98 138.152 105.285 137.969 105.214C137.329 104.96 136.132 103.255 136.132 103.255C136.132 103.255 134.792 105.285 134.224 105.224C133.655 105.163 131.788 101.854 131.788 101.854L132.488 99.6719Z" fill="#35406E"/>
<path d="M128.448 86.0711C128.838 85.5394 129.402 85.1611 130.041 85.0016C130.681 84.8422 131.356 84.9117 131.95 85.1982C131.973 85.1464 132.004 85.0984 132.041 85.0561C132.772 84.2644 133.056 83.4219 134.234 83.1073C135.274 82.8637 136.36 82.9022 137.38 83.2189C138.355 83.4832 139.187 84.1215 139.694 84.9952C139.779 84.9423 139.879 84.9174 139.979 84.9241C141.086 84.9665 142.132 85.4425 142.892 86.2496C143.652 87.0566 144.063 88.1299 144.039 89.2379C143.947 91.1461 142.445 93.2979 140.476 93.4095C139.53 93.7472 138.523 93.8787 137.522 93.7952C137.309 93.7755 137.106 93.6992 136.932 93.5742C136.759 93.4492 136.622 93.28 136.536 93.0842C136.45 92.8884 136.418 92.6732 136.443 92.4609C136.469 92.2486 136.55 92.047 136.68 91.8769L136.538 91.7855H136.426C136.263 91.9668 136.039 92.083 135.797 92.1128C135.554 92.1427 135.309 92.0841 135.107 91.9479L134.944 91.8464C134.699 91.7884 134.46 91.7033 134.234 91.5927L133.96 91.684L134.051 91.9682C134.116 92.2072 134.101 92.461 134.007 92.6904C133.914 92.9197 133.747 93.1118 133.533 93.237C133.322 93.3314 133.095 93.3831 132.863 93.3892C133.393 94.1441 134.087 94.7688 134.893 95.2162C135.969 95.7542 135.36 97.2462 134.376 97.2462C134.853 97.6015 134.67 99.7939 134.112 99.4792C132.718 98.7119 131.5 97.6619 130.535 96.3964C129.57 95.131 128.88 93.6781 128.509 92.1306C128.093 90.6995 127.454 87.3195 128.448 86.0711Z" fill="#2A343D"/>
<path d="M141.308 90.5066C141.582 90.5066 141.593 99.7431 137.786 100.362C132.985 101.134 131.189 95.4395 131.189 95.4395C131.189 95.4395 130.488 91.2171 133.473 89.8062C136.457 88.3954 137.878 91.0851 141.308 90.5066Z" fill="#EF986C"/>
<path d="M141.308 90.5063C141.308 90.5063 137.522 91.2067 135.503 90.5063C133.483 89.806 136.386 96.3121 134.883 96.3121C133.381 96.3121 133.473 92.7901 132.336 94.1096C131.199 95.4291 134.061 99.5094 134.061 99.5094C134.061 99.5094 130.001 97.4794 129.047 93.937C128.093 90.3947 132.6 87.0756 136.913 87.4207C141.227 87.7658 141.308 90.5063 141.308 90.5063Z" fill="#2A343D"/>
<defs>
<linearGradient id="paint0_linear" x1="172.915" y1="227.521" x2="147.419" y2="205.912" gradientUnits="userSpaceOnUse">
<stop stop-color="white" stop-opacity="0"/>
<stop offset="1" stop-color="#ED1C24"/>
</linearGradient>
<linearGradient id="paint1_linear" x1="9192.69" y1="7891.15" x2="9968.12" y2="6548.28" gradientUnits="userSpaceOnUse">
<stop stop-color="white" stop-opacity="0"/>
<stop offset="1" stop-color="#ED1C24"/>
</linearGradient>
<linearGradient id="paint2_linear" x1="12845.9" y1="8975.66" x2="13621.3" y2="7632.79" gradientUnits="userSpaceOnUse">
<stop stop-color="white" stop-opacity="0"/>
<stop offset="1" stop-color="#ED1C24"/>
</linearGradient>
</defs>
</svg>
