<svg width="311" height="223" viewBox="0 0 311 223" fill="none" xmlns="http://www.w3.org/2000/svg">
<g opacity="0.15">
<path opacity="0.15" d="M108.053 173.895H226.736C228.825 174.095 235.173 173.595 237.332 173.595C268.943 173.595 290.32 152.125 290.32 124.895C290.314 117.285 288.265 109.779 284.335 102.963C280.404 96.1482 274.697 90.2088 267.661 85.6095C260.624 81.0101 252.448 77.8754 243.773 76.4504C235.097 75.0254 226.156 75.3488 217.65 77.3952C215.615 65.7129 208.782 55.048 198.393 47.3402C188.004 39.6324 174.75 35.3937 161.041 35.3952C159.142 35.3922 157.244 35.4723 155.355 35.6352C147.407 28.6176 137.212 23.8012 126.072 21.8014C114.932 19.8015 103.353 20.7091 92.8143 24.408C82.2758 28.107 73.2564 34.4295 66.9085 42.5675C60.5607 50.7056 57.1726 60.2897 57.1773 70.0952C57.1886 71.7289 57.2971 73.3611 57.5023 74.9852H57.2237C49.709 74.9852 42.2679 76.2607 35.3252 78.7387C28.3825 81.2168 22.0742 84.8489 16.7604 89.4278C11.4467 94.0067 7.23166 99.4425 4.35589 105.425C1.48013 111.408 0 117.82 0 124.295C0 130.771 1.48013 137.183 4.35589 143.165C7.23166 149.148 11.4467 154.584 16.7604 159.163C22.0742 163.742 28.3825 167.374 35.3252 169.852C42.2679 172.33 49.709 173.605 57.2237 173.605L108.053 173.895Z" fill="#3F5A7C"/>
</g>
<path d="M125.46 156.895H244.144C246.233 157.095 252.58 156.595 254.739 156.595C286.351 156.595 307.727 135.125 307.727 107.895C307.721 100.285 305.673 92.7786 301.742 85.9634C297.811 79.1483 292.104 73.2088 285.068 68.6095C278.031 64.0101 269.856 60.8754 261.18 59.4504C252.504 58.0254 243.564 58.3488 235.057 60.3952C233.022 48.7129 226.189 38.048 215.8 30.3402C205.412 22.6324 192.157 18.3937 178.448 18.3952C176.549 18.3922 174.651 18.4723 172.762 18.6352C164.814 11.6211 154.619 6.80777 143.481 4.80994C132.343 2.81211 120.767 3.72049 110.231 7.41906C99.6949 11.1176 90.6773 17.4385 84.33 25.5744C77.9827 33.7102 74.5938 43.2918 74.5961 53.0952C74.6036 54.7288 74.7082 56.3609 74.9095 57.9852H74.631C67.1162 57.9852 59.6751 59.2607 52.7324 61.7387C45.7897 64.2168 39.4814 67.8489 34.1677 72.4278C28.854 77.0067 24.6389 82.4426 21.7631 88.4251C18.8874 94.4077 17.4072 100.82 17.4072 107.295C17.4072 113.771 18.8874 120.183 21.7631 126.165C24.6389 132.148 28.854 137.584 34.1677 142.163C39.4814 146.742 45.7897 150.374 52.7324 152.852C59.6751 155.33 67.1162 156.605 74.631 156.605L125.46 156.895Z" fill="white"/>
<path opacity="0.15" d="M91.3421 91.2854C91.3238 103.377 94.097 115.351 99.5002 126.51C104.903 137.669 112.829 147.791 122.815 156.285L77.2306 155.985C62.0539 155.985 47.4988 150.79 36.7673 141.543C26.0357 132.295 20.0068 119.753 20.0068 106.675C20.0068 93.5976 26.0357 81.0554 36.7673 71.808C47.4988 62.5606 62.0539 57.3654 77.2306 57.3654H77.5091C77.3198 55.7439 77.2268 54.1151 77.2306 52.4854C77.2483 44.3813 79.5824 36.4057 84.0265 29.2634C88.4707 22.1211 94.8881 16.0321 102.712 11.5344C110.535 7.03677 119.524 4.26895 128.883 3.47555C138.243 2.68216 147.685 3.88762 156.376 6.98542C137.107 13.9571 120.656 25.6764 109.087 40.6734C97.5173 55.6703 91.3443 73.2771 91.3421 91.2854V91.2854Z" fill="#651FFF"/>
<path d="M210.236 159.895C220.773 159.895 231.31 159.895 241.836 159.895C256.365 159.945 271.08 159.495 283.857 152.825C316.049 136.015 319.635 94.6953 294.464 71.8253C278.971 57.7553 255.704 52.6153 234.119 57.4953L238.401 59.5953C236.632 49.9935 231.803 41.004 224.45 33.6301C217.098 26.2561 207.512 20.7878 196.762 17.8353C193.431 16.9302 190.014 16.281 186.55 15.8953C184.399 15.6416 182.233 15.4848 180.063 15.4253C178.229 15.4253 175.595 15.9253 173.924 15.4253C172.462 15.0053 170.825 13.0253 169.549 12.1453C168.029 11.1453 166.474 10.1453 164.907 9.2053C161.109 7.08476 157.049 5.33404 152.803 3.9853C144.547 1.36654 135.725 0.342406 126.959 0.985302C118.95 1.54034 111.148 3.46108 104.007 6.63598C96.8665 9.81088 90.529 14.1767 85.3627 19.4798C80.1963 24.7829 76.3042 30.9177 73.9124 37.5278C71.5205 44.138 70.6766 51.0918 71.4296 57.9853L74.911 54.9853C34.9902 54.1253 5.54858 89.1553 16.2251 121.625C18.8099 129.303 23.385 136.375 29.605 142.306C35.8249 148.237 43.5273 152.874 52.1306 155.865C64.014 159.975 76.3384 159.605 88.8485 159.675L125.497 159.895C129.976 159.895 129.988 153.895 125.497 153.895C108.008 153.795 90.4732 154.045 72.9962 153.575C34.642 152.575 9.09968 116.345 26.5186 86.5753C35.4544 71.1953 54.6141 60.5353 74.911 60.9853C75.8344 60.9853 76.7199 60.6692 77.3728 60.1066C78.0257 59.544 78.3925 58.781 78.3925 57.9853C75.9903 33.4653 95.591 10.7453 124.29 7.2453C140.804 5.2453 156.865 10.0953 169.062 19.6953C171.754 21.8153 172.903 21.5453 176.57 21.4453C187.235 21.1011 197.775 23.5146 206.835 28.3753C213.477 31.9884 219.138 36.7916 223.434 42.4583C227.729 48.1251 230.558 54.5224 231.728 61.2153C232.03 62.8353 234.351 63.6853 236.01 63.3153C273.622 54.8253 308.552 81.7753 303.818 114.815C301.787 128.935 292.7 142.135 277.904 148.885C266.601 154.035 253.696 153.885 241.244 153.885H210.236C205.756 153.885 205.745 159.885 210.236 159.885V159.895Z" fill="#651FFF"/>
<path d="M23.21 84.7952H52.199V81.3352H25.5309L23.21 84.7952Z" fill="#651FFF"/>
<path d="M59.6499 90.2253C64.2389 90.2253 67.959 87.0196 67.959 83.0653C67.959 79.1109 64.2389 75.9053 59.6499 75.9053C55.0609 75.9053 51.3408 79.1109 51.3408 83.0653C51.3408 87.0196 55.0609 90.2253 59.6499 90.2253Z" fill="#651FFF"/>
<path d="M94.3013 98.3953H16.0146V101.855H94.3013V98.3953Z" fill="#651FFF"/>
<path d="M100.719 107.285C105.308 107.285 109.028 104.08 109.028 100.125C109.028 96.171 105.308 92.9653 100.719 92.9653C96.1303 92.9653 92.4102 96.171 92.4102 100.125C92.4102 104.08 96.1303 107.285 100.719 107.285Z" fill="#651FFF"/>
<path d="M17.4076 118.915H78.6814V115.455H16.2471L17.4076 118.915Z" fill="#651FFF"/>
<path d="M84.5884 124.345C89.1774 124.345 92.8975 121.14 92.8975 117.185C92.8975 113.231 89.1774 110.025 84.5884 110.025C79.9994 110.025 76.2793 113.231 76.2793 117.185C76.2793 121.14 79.9994 124.345 84.5884 124.345Z" fill="#651FFF"/>
<path d="M28.5362 135.975H96.0998V132.515H25.0547L28.5362 135.975Z" fill="#651FFF"/>
<path d="M100.719 141.405C105.308 141.405 109.028 138.2 109.028 134.245C109.028 130.291 105.308 127.085 100.719 127.085C96.1303 127.085 92.4102 130.291 92.4102 134.245C92.4102 138.2 96.1303 141.405 100.719 141.405Z" fill="#651FFF"/>
<path d="M168.08 154.04L149.384 208.076H141.936L123.164 154.04H129.7L145.812 200.476H145.964L161.772 154.04H168.08ZM211.424 154.04L192.728 208.076H185.28L166.508 154.04H173.044L189.156 200.476H189.308L205.116 154.04H211.424Z" fill="#651FFF"/>
<path d="M141.192 104.6L131.496 127H126.376L116.712 104.6H122.312L129.128 120.6L136.04 104.6H141.192ZM165.067 104.6L155.371 127H150.251L140.587 104.6H146.187L153.003 120.6L159.915 104.6H165.067ZM184.437 127.256C182.602 127.256 180.949 126.883 179.477 126.136C178.026 125.368 176.885 124.312 176.053 122.968C175.242 121.624 174.837 120.099 174.837 118.392C174.837 116.685 175.242 115.16 176.053 113.816C176.885 112.472 178.026 111.427 179.477 110.68C180.949 109.912 182.602 109.528 184.437 109.528C186.25 109.528 187.829 109.912 189.173 110.68C190.538 111.427 191.53 112.504 192.149 113.912L188.277 115.992C187.381 114.413 186.09 113.624 184.405 113.624C183.103 113.624 182.026 114.051 181.173 114.904C180.319 115.757 179.893 116.92 179.893 118.392C179.893 119.864 180.319 121.027 181.173 121.88C182.026 122.733 183.103 123.16 184.405 123.16C186.111 123.16 187.402 122.371 188.277 120.792L192.149 122.904C191.53 124.269 190.538 125.336 189.173 126.104C187.829 126.872 186.25 127.256 184.437 127.256ZM199.791 112.056C200.388 111.224 201.188 110.595 202.191 110.168C203.215 109.741 204.388 109.528 205.711 109.528V114.136C205.156 114.093 204.783 114.072 204.591 114.072C203.161 114.072 202.041 114.477 201.231 115.288C200.42 116.077 200.015 117.272 200.015 118.872V127H195.023V109.784H199.791V112.056ZM226.361 109.784L218.585 128.056C217.795 130.04 216.814 131.437 215.641 132.248C214.489 133.059 213.091 133.464 211.449 133.464C210.553 133.464 209.667 133.325 208.793 133.048C207.918 132.771 207.203 132.387 206.649 131.896L208.473 128.344C208.857 128.685 209.294 128.952 209.785 129.144C210.297 129.336 210.798 129.432 211.289 129.432C211.971 129.432 212.526 129.261 212.953 128.92C213.379 128.6 213.763 128.056 214.105 127.288L214.169 127.128L206.713 109.784H211.865L216.697 121.464L221.561 109.784H226.361ZM238.574 109.528C240.174 109.528 241.624 109.901 242.926 110.648C244.248 111.373 245.283 112.408 246.03 113.752C246.776 115.075 247.15 116.621 247.15 118.392C247.15 120.163 246.776 121.72 246.03 123.064C245.283 124.387 244.248 125.421 242.926 126.168C241.624 126.893 240.174 127.256 238.574 127.256C236.376 127.256 234.648 126.563 233.39 125.176V133.208H228.398V109.784H233.166V111.768C234.403 110.275 236.206 109.528 238.574 109.528ZM237.71 123.16C238.99 123.16 240.035 122.733 240.846 121.88C241.678 121.005 242.094 119.843 242.094 118.392C242.094 116.941 241.678 115.789 240.846 114.936C240.035 114.061 238.99 113.624 237.71 113.624C236.43 113.624 235.374 114.061 234.542 114.936C233.731 115.789 233.326 116.941 233.326 118.392C233.326 119.843 233.731 121.005 234.542 121.88C235.374 122.733 236.43 123.16 237.71 123.16ZM261.596 126.168C261.105 126.531 260.497 126.808 259.772 127C259.068 127.171 258.321 127.256 257.532 127.256C255.484 127.256 253.894 126.733 252.764 125.688C251.654 124.643 251.1 123.107 251.1 121.08V114.008H248.444V110.168H251.1V105.976H256.092V110.168H260.38V114.008H256.092V121.016C256.092 121.741 256.273 122.307 256.635 122.712C257.02 123.096 257.553 123.288 258.236 123.288C259.025 123.288 259.697 123.075 260.252 122.648L261.596 126.168ZM272.059 127.256C270.245 127.256 268.613 126.883 267.163 126.136C265.733 125.368 264.613 124.312 263.803 122.968C262.992 121.624 262.587 120.099 262.587 118.392C262.587 116.685 262.992 115.16 263.803 113.816C264.613 112.472 265.733 111.427 267.163 110.68C268.613 109.912 270.245 109.528 272.059 109.528C273.872 109.528 275.493 109.912 276.923 110.68C278.352 111.427 279.472 112.472 280.283 113.816C281.093 115.16 281.499 116.685 281.499 118.392C281.499 120.099 281.093 121.624 280.283 122.968C279.472 124.312 278.352 125.368 276.923 126.136C275.493 126.883 273.872 127.256 272.059 127.256ZM272.059 123.16C273.339 123.16 274.384 122.733 275.195 121.88C276.027 121.005 276.443 119.843 276.443 118.392C276.443 116.941 276.027 115.789 275.195 114.936C274.384 114.061 273.339 113.624 272.059 113.624C270.779 113.624 269.723 114.061 268.891 114.936C268.059 115.789 267.643 116.941 267.643 118.392C267.643 119.843 268.059 121.005 268.891 121.88C269.723 122.733 270.779 123.16 272.059 123.16Z" fill="#212121"/>
<path d="M117 116.696H164.747V118.296H117V116.696Z" fill="#212121"/>
</svg>
